<svg xmlns="http://www.w3.org/2000/svg" shape-rendering="geometricPrecision" text-rendering="geometricPrecision" image-rendering="optimizeQuality" fill-rule="evenodd" clip-rule="evenodd" viewBox="0 0 508 511.621"><path fill="#7D5415" fill-rule="nonzero" d="M6.271 487.107c-8.361-8.361-8.361-22.13 0-30.491l182.66-182.656c8.357-8.357 22.134-8.357 30.491 0l18.242 18.242c8.324 8.324 8.208 22.221-.078 30.524L54.039 506.223c-8.422 7.553-21.491 7.104-29.48-.874L6.271 487.107z"/><path fill="#8B5D17" d="M32.228 497.635l-18.243-18.243c-4.148-4.148-4.145-10.914-.003-15.063l182.662-182.655c4.142-4.143 10.926-4.14 15.065 0l18.243 18.243c4.134 4.133 4.055 11.01-.084 15.144L47.209 497.719c-4.14 4.134-10.833 4.064-14.981-.084z"/><path fill="#9D773E" d="M78.937 399.375l70.779-70.779 3.767 62.85-71.115 71.114z"/><path fill="#F7B205" fill-rule="nonzero" d="M212.347 303.103l-90.722-19.01c-18.729-3.912-23.531-28.351-7.833-39.07l76.475-52.414-9.973-92.236c-2.057-19.046 20.04-31.2 35.034-19.244l73.238 56.339 84.592-37.96c17.401-7.916 35.681 9.23 29.32 27.023l-31.101 87.408 62.251 68.724c13.069 14.425 1.831 37.322-17.356 36.138l-91.955-2.547-46.136 80.465c-9.515 16.642-34.469 13.571-39.733-4.832l-26.101-88.784z"/><path fill="#FFE80E" fill-rule="nonzero" d="M223.098 291.46l-98.702-20.682c-7.004-1.435-8.711-10.563-2.936-14.518l83.208-57.026-10.842-100.301c-.78-7.261 7.694-11.645 13.198-7.058l79.685 61.323 92.037-41.303c6.518-2.93 13.232 3.501 10.893 10.057l-33.798 95.054 67.721 74.762c4.883 5.398.639 13.883-6.49 13.449l-100.537-2.772-50.176 87.509c-3.573 6.241-12.865 4.98-14.81-1.794l-28.451-96.7z"/><path fill="#FFF56F" fill-rule="nonzero" d="M242.885 271.374l-58.618-12.283c-4.159-.852-5.173-6.273-1.743-8.622l49.416-33.866-6.439-59.568c-.463-4.312 4.569-6.915 7.838-4.191l47.324 36.418 54.658-24.529c3.872-1.74 7.859 2.079 6.47 5.973l-20.072 56.451 40.219 44.4c2.899 3.206.379 8.245-3.855 7.987l-59.707-1.646-29.799 51.97c-2.122 3.706-7.641 2.958-8.796-1.065l-16.896-57.429z"/><path fill="#F9AC33" d="M71.668 129.376l-4.543 10.389c-1.79 4.089-.017 9.181 4.18 10.681l63.5 22.642c10.298 3.685 16.99-11.56 7.277-16.639l-59.733-31.254c-3.953-2.065-8.892.095-10.681 4.181zM386.07 438.547l9.836-5.632c3.876-2.214 5.492-7.359 3.014-11.069l-37.482-56.035c-6.073-9.098-20.531-.849-15.761 9.021l29.324 60.705c1.942 4.015 7.194 5.228 11.069 3.01zm121.691-251.764l-2.708-11.011c-1.064-4.333-5.57-7.301-9.812-5.937l-64.181 20.629c-10.422 3.336-6.464 19.509 4.337 17.633l66.428-11.502c4.394-.763 7.004-5.479 5.936-9.812zM290.516 0h-11.337c-4.465 0-8.422 3.665-8.113 8.114l4.699 67.251c.751 10.913 17.402 10.934 18.161 0l4.699-67.251c.31-4.453-3.648-8.114-8.109-8.114z"/></svg>